# xmcd
#
# Track frame offsets: 
#        150
#        25200
#        49213
#        69725
#        104250
#        140475
#        332550
#
# Disc length: 4440 seconds
#
# Revision: 1
# Processed by: cddbd v1.5.1PL0 Copyright (c) Steve Scherf et al.
# Submitted via: ExactAudioCopy v0.95a3
#
DISCID=62115607
DTITLE=Mika Nakashima - Ashiteru
DYEAR=2003
DGENRE=JPop
TTITLE0=Ashiteru
TTITLE1=Marionette
TTITLE2=The Rose
TTITLE3=Ashiteru (Jazztronik Mix)
TTITLE4=Ashiteru (Instrumental)
TTITLE5=data
TTITLE6=data
EXTD=
EXTT0=
EXTT1=
EXTT2=
EXTT3=
EXTT4=
EXTT5=
EXTT6=
PLAYORDER=
